<svg xmlns="http://www.w3.org/2000/svg" xmlns:xlink="http://www.w3.org/1999/xlink" width="2000" zoomAndPan="magnify" viewBox="0 0 1500 1499.999933" height="2000" preserveAspectRatio="xMidYMid meet" version="1.0"><defs><g/><clipPath id="36097718ef"><rect x="0" width="1310" y="0" height="663"/></clipPath></defs><g transform="matrix(1, 0, 0, 1, 95, 417)"><g clip-path="url(#36097718ef)"><g fill="#00b1e9" fill-opacity="1"><g transform="translate(1.95131, 526.57154)"><g><path d="M 207.203125 -379.6875 C 240.109375 -379.6875 268.765625 -374.257812 293.171875 -363.40625 C 317.578125 -352.5625 336.289062 -337.015625 349.3125 -316.765625 C 362.332031 -296.515625 368.84375 -272.46875 368.84375 -244.625 C 368.84375 -217.144531 362.332031 -193.1875 349.3125 -172.75 C 336.289062 -152.320312 317.578125 -136.679688 293.171875 -125.828125 C 268.765625 -114.984375 240.109375 -109.5625 207.203125 -109.5625 L 121.5 -109.5625 L 121.5 0 L 50.984375 0 L 50.984375 -379.6875 Z M 203.9375 -169.234375 C 234.675781 -169.234375 258 -175.738281 273.90625 -188.75 C 289.820312 -201.769531 297.78125 -220.394531 297.78125 -244.625 C 297.78125 -268.851562 289.820312 -287.472656 273.90625 -300.484375 C 258 -313.503906 234.675781 -320.015625 203.9375 -320.015625 L 121.5 -320.015625 L 121.5 -169.234375 Z M 203.9375 -169.234375 "/></g></g></g><g fill="#00b1e9" fill-opacity="1"><g transform="translate(395.715699, 526.57154)"><g><path d="M 226.71875 5.421875 C 188.394531 5.421875 153.773438 -2.984375 122.859375 -19.796875 C 91.941406 -36.609375 67.710938 -59.835938 50.171875 -89.484375 C 32.628906 -119.140625 23.859375 -152.59375 23.859375 -189.84375 C 23.859375 -227.082031 32.71875 -260.53125 50.4375 -290.1875 C 68.15625 -319.84375 92.472656 -343.078125 123.390625 -359.890625 C 154.304688 -376.703125 188.929688 -385.109375 227.265625 -385.109375 C 258.367188 -385.109375 286.753906 -379.679688 312.421875 -368.828125 C 338.097656 -357.984375 359.796875 -342.253906 377.515625 -321.640625 L 331.953125 -278.796875 C 304.472656 -308.453125 270.660156 -323.28125 230.515625 -323.28125 C 204.484375 -323.28125 181.160156 -317.582031 160.546875 -306.1875 C 139.941406 -294.800781 123.851562 -278.984375 112.28125 -258.734375 C 100.707031 -238.484375 94.921875 -215.519531 94.921875 -189.84375 C 94.921875 -164.164062 100.707031 -141.203125 112.28125 -120.953125 C 123.851562 -100.703125 139.941406 -84.878906 160.546875 -73.484375 C 181.160156 -62.097656 204.484375 -56.40625 230.515625 -56.40625 C 270.660156 -56.40625 304.472656 -71.414062 331.953125 -101.4375 L 377.515625 -58.03125 C 359.796875 -37.425781 338.007812 -21.695312 312.15625 -10.84375 C 286.300781 0 257.820312 5.421875 226.71875 5.421875 Z M 226.71875 5.421875 "/></g></g></g><g fill="#00b1e9" fill-opacity="1"><g transform="translate(790.02248, 526.57154)"><g><path d="M 399.75 0 L 399.21875 -251.671875 L 274.453125 -43.390625 L 243 -43.390625 L 118.25 -248.421875 L 118.25 0 L 50.984375 0 L 50.984375 -379.6875 L 109.03125 -379.6875 L 259.8125 -128.015625 L 407.890625 -379.6875 L 465.921875 -379.6875 L 466.46875 0 Z M 399.75 0 "/></g></g></g></g></g></svg>